<svg version="1.0" preserveAspectRatio="xMidYMid meet" viewBox="66.60000000000001 103.34999751960001 207.75000000000003 149.24999641800002" zoomAndPan="magnify" xmlns:xlink="http://www.w3.org/1999/xlink" xmlns="http://www.w3.org/2000/svg" style="max-height: 500px" width="207.75000000000003" height="149.24999641800002"><defs><g/><clipPath id="2b12a3158e"><path clip-rule="nonzero" d="M 158 139 L 165.160156 139 L 165.160156 147 L 158 147 Z M 158 139"/></clipPath><clipPath id="8de71bcf7d"><path clip-rule="nonzero" d="M 98 185 L 143 185 L 143 243.15625 L 98 243.15625 Z M 98 185"/></clipPath><clipPath id="a53c438b96"><path clip-rule="nonzero" d="M 236.898438 203.445312 L 254.148438 203.445312 L 254.148438 224.445312 L 236.898438 224.445312 Z M 236.898438 203.445312"/></clipPath></defs><rect fill-opacity="1" height="449.999989" y="-37.499999" fill="#ffffff" width="450" x="-37.5"/><rect fill-opacity="1" height="449.999989" y="-37.499999" fill="#ffffff" width="450" x="-37.5"/><path fill-rule="nonzero" fill-opacity="1" d="M 81.511719 122.453125 C 80.539062 123.425781 79.675781 124.464844 78.914062 125.554688 C 79.785156 122.898438 81.273438 120.402344 83.382812 118.289062 C 90.570312 111.105469 102.21875 111.105469 109.40625 118.289062 L 110.984375 119.867188 C 102 113.570312 89.535156 114.429688 81.511719 122.453125 Z M 126.296875 152.761719 L 136.621094 142.433594 L 111.527344 117.339844 C 103.171875 108.984375 89.625 108.984375 81.269531 117.339844 C 72.914062 125.695312 72.914062 139.242188 81.269531 147.597656 L 106.363281 172.695312 L 116.550781 162.507812 L 106.226562 152.179688 L 115.972656 142.433594 L 126.296875 152.761719" fill="#ff9700"/><path fill-rule="nonzero" fill-opacity="1" d="M 149.023438 158.164062 L 142.644531 158.164062 L 142.644531 151.785156 L 137.652344 151.785156 L 137.652344 158.164062 L 131.273438 158.164062 L 131.273438 163.15625 L 137.652344 163.15625 L 137.652344 169.53125 L 142.644531 169.53125 L 142.644531 163.15625 L 149.023438 163.15625 L 149.023438 158.164062" fill="#ff9700"/><path fill-rule="nonzero" fill-opacity="1" d="M 160.082031 151.246094 L 156.757812 151.246094 L 156.757812 147.921875 L 154.15625 147.921875 L 154.15625 151.246094 L 150.832031 151.246094 L 150.832031 153.847656 L 154.15625 153.847656 L 154.15625 157.171875 L 156.757812 157.171875 L 156.757812 153.847656 L 160.082031 153.847656 L 160.082031 151.246094" fill="#ff9700"/><g clip-path="url(#2b12a3158e)"><path fill-rule="nonzero" fill-opacity="1" d="M 165.242188 142.203125 L 162.96875 142.203125 L 162.96875 139.925781 L 161.183594 139.925781 L 161.183594 142.203125 L 158.90625 142.203125 L 158.90625 143.988281 L 161.183594 143.988281 L 161.183594 146.261719 L 162.96875 146.261719 L 162.96875 143.988281 L 165.242188 143.988281 L 165.242188 142.203125" fill="#ff9700"/></g><path fill-rule="nonzero" fill-opacity="1" d="M 149.9375 142.265625 L 147.816406 142.265625 L 147.816406 140.140625 L 146.152344 140.140625 L 146.152344 142.265625 L 144.03125 142.265625 L 144.03125 143.925781 L 146.152344 143.925781 L 146.152344 146.050781 L 147.816406 146.050781 L 147.816406 143.925781 L 149.9375 143.925781 L 149.9375 142.265625" fill="#ff9700"/><path fill-rule="nonzero" fill-opacity="1" d="M 157.601562 163.230469 L 155.476562 163.230469 L 155.476562 161.105469 L 153.816406 161.105469 L 153.816406 163.230469 L 151.691406 163.230469 L 151.691406 164.890625 L 153.816406 164.890625 L 153.816406 167.015625 L 155.476562 167.015625 L 155.476562 164.890625 L 157.601562 164.890625 L 157.601562 163.230469" fill="#ff9700"/><g clip-path="url(#8de71bcf7d)"><path fill-rule="nonzero" fill-opacity="1" d="M 140.203125 222.609375 C 140.203125 232.933594 131.835938 241.304688 121.511719 241.304688 C 118.480469 241.304688 115.617188 240.578125 113.085938 239.296875 C 114.414062 239.53125 115.78125 239.660156 117.175781 239.660156 C 128.703125 239.660156 138.277344 231.320312 140.203125 220.34375 Z M 127.675781 185.714844 L 127.675781 200.550781 L 113.675781 200.550781 L 113.675781 185.714844 L 98.941406 185.714844 L 98.941406 221.765625 C 98.941406 233.773438 108.671875 243.503906 120.675781 243.503906 C 132.679688 243.503906 142.410156 233.773438 142.410156 221.769531 L 142.410156 185.714844 L 127.675781 185.714844" fill="#0e606e"/></g><g fill-opacity="1" fill="#0e606e"><g transform="translate(142.403612, 200.942623)"><g><path d="M 2.5 -30.625 L 17.59375 -30.625 C 21 -30.625 24.003906 -30.003906 26.609375 -28.765625 C 29.222656 -27.523438 31.253906 -25.753906 32.703125 -23.453125 C 34.148438 -21.148438 34.875 -18.4375 34.875 -15.3125 C 34.875 -12.1875 34.148438 -9.472656 32.703125 -7.171875 C 31.253906 -4.867188 29.222656 -3.097656 26.609375 -1.859375 C 24.003906 -0.617188 21 0 17.59375 0 L 2.5 0 Z M 17.15625 -8.046875 C 19.363281 -8.046875 21.128906 -8.679688 22.453125 -9.953125 C 23.785156 -11.222656 24.453125 -13.007812 24.453125 -15.3125 C 24.453125 -17.613281 23.785156 -19.398438 22.453125 -20.671875 C 21.128906 -21.941406 19.363281 -22.578125 17.15625 -22.578125 L 12.8125 -22.578125 L 12.8125 -8.046875 Z M 17.15625 -8.046875"/></g></g></g><g fill-opacity="1" fill="#0e606e"><g transform="translate(175.732044, 200.942623)"><g/></g></g><g fill-opacity="1" fill="#0e606e"><g transform="translate(186.053865, 200.942623)"><g><path d="M 18.546875 0.703125 C 15.253906 0.703125 12.296875 0.0195312 9.671875 -1.34375 C 7.046875 -2.71875 4.988281 -4.625 3.5 -7.0625 C 2.007812 -9.5 1.265625 -12.25 1.265625 -15.3125 C 1.265625 -18.375 2.007812 -21.125 3.5 -23.5625 C 4.988281 -26 7.046875 -27.898438 9.671875 -29.265625 C 12.296875 -30.640625 15.253906 -31.328125 18.546875 -31.328125 C 21.847656 -31.328125 24.8125 -30.640625 27.4375 -29.265625 C 30.0625 -27.898438 32.113281 -26 33.59375 -23.5625 C 35.082031 -21.125 35.828125 -18.375 35.828125 -15.3125 C 35.828125 -12.25 35.082031 -9.5 33.59375 -7.0625 C 32.113281 -4.625 30.0625 -2.71875 27.4375 -1.34375 C 24.8125 0.0195312 21.847656 0.703125 18.546875 0.703125 Z M 18.546875 -7.65625 C 19.828125 -7.65625 20.984375 -7.96875 22.015625 -8.59375 C 23.054688 -9.21875 23.882812 -10.109375 24.5 -11.265625 C 25.113281 -12.421875 25.421875 -13.769531 25.421875 -15.3125 C 25.421875 -16.851562 25.113281 -18.203125 24.5 -19.359375 C 23.882812 -20.515625 23.054688 -21.40625 22.015625 -22.03125 C 20.984375 -22.65625 19.828125 -22.96875 18.546875 -22.96875 C 17.265625 -22.96875 16.101562 -22.65625 15.0625 -22.03125 C 14.03125 -21.40625 13.207031 -20.515625 12.59375 -19.359375 C 11.988281 -18.203125 11.6875 -16.851562 11.6875 -15.3125 C 11.6875 -13.769531 11.988281 -12.421875 12.59375 -11.265625 C 13.207031 -10.109375 14.03125 -9.21875 15.0625 -8.59375 C 16.101562 -7.96875 17.265625 -7.65625 18.546875 -7.65625 Z M 18.546875 -7.65625"/></g></g></g><g fill-opacity="1" fill="#0e606e"><g transform="translate(220.344542, 200.942623)"><g/></g></g><g fill-opacity="1" fill="#0e606e"><g transform="translate(230.666363, 200.942623)"><g><path d="M 18.328125 0.703125 C 15.085938 0.703125 12.171875 0.0234375 9.578125 -1.328125 C 6.984375 -2.691406 4.945312 -4.585938 3.46875 -7.015625 C 2 -9.453125 1.265625 -12.21875 1.265625 -15.3125 C 1.265625 -18.40625 2 -21.164062 3.46875 -23.59375 C 4.945312 -26.03125 6.984375 -27.925781 9.578125 -29.28125 C 12.171875 -30.644531 15.085938 -31.328125 18.328125 -31.328125 C 21.304688 -31.328125 23.960938 -30.800781 26.296875 -29.75 C 28.628906 -28.695312 30.550781 -27.179688 32.0625 -25.203125 L 25.546875 -19.375 C 23.648438 -21.769531 21.421875 -22.96875 18.859375 -22.96875 C 16.703125 -22.96875 14.96875 -22.273438 13.65625 -20.890625 C 12.34375 -19.503906 11.6875 -17.644531 11.6875 -15.3125 C 11.6875 -12.976562 12.34375 -11.117188 13.65625 -9.734375 C 14.96875 -8.347656 16.703125 -7.65625 18.859375 -7.65625 C 21.421875 -7.65625 23.648438 -8.851562 25.546875 -11.25 L 32.0625 -5.421875 C 30.550781 -3.441406 28.628906 -1.925781 26.296875 -0.875 C 23.960938 0.175781 21.304688 0.703125 18.328125 0.703125 Z M 18.328125 0.703125"/></g></g></g><g clip-path="url(#a53c438b96)"><path fill-rule="nonzero" fill-opacity="1" d="M 254.410156 214.867188 L 254.414062 216.191406 C 254.414062 216.679688 254.011719 217.082031 253.519531 217.082031 L 247.949219 217.085938 C 247.460938 217.085938 247.058594 217.484375 247.058594 217.976562 L 247.058594 223.777344 C 247.058594 224.269531 246.660156 224.667969 246.167969 224.667969 L 244.847656 224.667969 C 244.355469 224.667969 243.550781 224.671875 243.0625 224.671875 L 241.738281 224.671875 C 241.25 224.671875 240.847656 224.269531 240.847656 223.777344 L 240.84375 217.976562 C 240.84375 217.488281 240.445312 217.085938 239.953125 217.085938 L 236.585938 217.085938 L 236.585938 216.519531 L 238.203125 216.519531 L 238.203125 215.132812 L 237.203125 215.132812 L 237.203125 213.515625 L 238.820312 213.515625 L 238.820312 212.011719 L 237.78125 212.011719 L 237.78125 210.875 L 239.953125 210.871094 C 240.441406 210.871094 240.84375 210.472656 240.84375 209.980469 L 240.84375 204.410156 C 240.84375 203.917969 241.242188 203.519531 241.734375 203.519531 L 243.058594 203.519531 C 243.546875 203.519531 244.347656 203.519531 244.839844 203.515625 L 246.164062 203.515625 C 246.652344 203.515625 247.054688 203.917969 247.054688 204.40625 L 247.054688 209.976562 C 247.054688 210.46875 247.457031 210.871094 247.949219 210.871094 L 253.519531 210.867188 C 254.011719 210.867188 254.410156 211.269531 254.410156 211.761719 L 254.410156 213.082031 C 254.410156 213.574219 254.410156 214.378906 254.410156 214.867188 Z M 254.410156 214.867188" fill="#0e606e"/></g><g fill-opacity="1" fill="#ff9700"><g transform="translate(157.6972, 217.084205)"><g><path d="M 5.015625 0.1875 C 4.128906 0.1875 3.332031 0.00390625 2.625 -0.359375 C 1.914062 -0.734375 1.359375 -1.253906 0.953125 -1.921875 C 0.546875 -2.585938 0.34375 -3.34375 0.34375 -4.1875 C 0.34375 -5.03125 0.546875 -5.785156 0.953125 -6.453125 C 1.359375 -7.117188 1.914062 -7.632812 2.625 -8 C 3.332031 -8.375 4.128906 -8.5625 5.015625 -8.5625 C 5.828125 -8.5625 6.550781 -8.414062 7.1875 -8.125 C 7.832031 -7.84375 8.359375 -7.429688 8.765625 -6.890625 L 6.984375 -5.296875 C 6.472656 -5.953125 5.863281 -6.28125 5.15625 -6.28125 C 4.5625 -6.28125 4.085938 -6.085938 3.734375 -5.703125 C 3.378906 -5.328125 3.203125 -4.820312 3.203125 -4.1875 C 3.203125 -3.550781 3.378906 -3.039062 3.734375 -2.65625 C 4.085938 -2.28125 4.5625 -2.09375 5.15625 -2.09375 C 5.863281 -2.09375 6.472656 -2.421875 6.984375 -3.078125 L 8.765625 -1.484375 C 8.359375 -0.941406 7.832031 -0.523438 7.1875 -0.234375 C 6.550781 0.046875 5.828125 0.1875 5.015625 0.1875 Z M 5.015625 0.1875"/></g></g></g><g fill-opacity="1" fill="#ff9700"><g transform="translate(170.695372, 217.084205)"><g><path d="M 5.078125 0.1875 C 4.171875 0.1875 3.359375 0 2.640625 -0.375 C 1.921875 -0.75 1.359375 -1.269531 0.953125 -1.9375 C 0.546875 -2.601562 0.34375 -3.351562 0.34375 -4.1875 C 0.34375 -5.03125 0.546875 -5.78125 0.953125 -6.4375 C 1.359375 -7.101562 1.921875 -7.625 2.640625 -8 C 3.359375 -8.375 4.171875 -8.5625 5.078125 -8.5625 C 5.972656 -8.5625 6.78125 -8.375 7.5 -8 C 8.21875 -7.625 8.78125 -7.101562 9.1875 -6.4375 C 9.59375 -5.78125 9.796875 -5.03125 9.796875 -4.1875 C 9.796875 -3.351562 9.59375 -2.601562 9.1875 -1.9375 C 8.78125 -1.269531 8.21875 -0.75 7.5 -0.375 C 6.78125 0 5.972656 0.1875 5.078125 0.1875 Z M 5.078125 -2.09375 C 5.421875 -2.09375 5.734375 -2.175781 6.015625 -2.34375 C 6.304688 -2.519531 6.535156 -2.765625 6.703125 -3.078125 C 6.867188 -3.398438 6.953125 -3.769531 6.953125 -4.1875 C 6.953125 -4.613281 6.867188 -4.984375 6.703125 -5.296875 C 6.535156 -5.609375 6.304688 -5.847656 6.015625 -6.015625 C 5.734375 -6.191406 5.421875 -6.28125 5.078125 -6.28125 C 4.722656 -6.28125 4.40625 -6.191406 4.125 -6.015625 C 3.84375 -5.847656 3.617188 -5.609375 3.453125 -5.296875 C 3.285156 -4.984375 3.203125 -4.613281 3.203125 -4.1875 C 3.203125 -3.769531 3.285156 -3.398438 3.453125 -3.078125 C 3.617188 -2.765625 3.84375 -2.519531 4.125 -2.34375 C 4.40625 -2.175781 4.722656 -2.09375 5.078125 -2.09375 Z M 5.078125 -2.09375"/></g></g></g><g fill-opacity="1" fill="#ff9700"><g transform="translate(184.936683, 217.084205)"><g><path d="M 8.9375 -8.375 L 8.9375 0 L 6.625 0 L 3.4375 -3.8125 L 3.4375 0 L 0.6875 0 L 0.6875 -8.375 L 3 -8.375 L 6.1875 -4.578125 L 6.1875 -8.375 Z M 8.9375 -8.375"/></g></g></g><g fill-opacity="1" fill="#ff9700"><g transform="translate(198.652045, 217.084205)"><g><path d="M 8.9375 -8.375 L 8.9375 0 L 6.625 0 L 3.4375 -3.8125 L 3.4375 0 L 0.6875 0 L 0.6875 -8.375 L 3 -8.375 L 6.1875 -4.578125 L 6.1875 -8.375 Z M 8.9375 -8.375"/></g></g></g><g fill-opacity="1" fill="#ff9700"><g transform="translate(212.367407, 217.084205)"><g><path d="M 7.640625 -2.125 L 7.640625 0 L 0.6875 0 L 0.6875 -8.375 L 7.5 -8.375 L 7.5 -6.25 L 3.453125 -6.25 L 3.453125 -5.265625 L 7 -5.265625 L 7 -3.234375 L 3.453125 -3.234375 L 3.453125 -2.125 Z M 7.640625 -2.125"/></g></g></g><g fill-opacity="1" fill="#ff9700"><g transform="translate(224.516912, 217.084205)"><g><path d="M 5.015625 0.1875 C 4.128906 0.1875 3.332031 0.00390625 2.625 -0.359375 C 1.914062 -0.734375 1.359375 -1.253906 0.953125 -1.921875 C 0.546875 -2.585938 0.34375 -3.34375 0.34375 -4.1875 C 0.34375 -5.03125 0.546875 -5.785156 0.953125 -6.453125 C 1.359375 -7.117188 1.914062 -7.632812 2.625 -8 C 3.332031 -8.375 4.128906 -8.5625 5.015625 -8.5625 C 5.828125 -8.5625 6.550781 -8.414062 7.1875 -8.125 C 7.832031 -7.84375 8.359375 -7.429688 8.765625 -6.890625 L 6.984375 -5.296875 C 6.472656 -5.953125 5.863281 -6.28125 5.15625 -6.28125 C 4.5625 -6.28125 4.085938 -6.085938 3.734375 -5.703125 C 3.378906 -5.328125 3.203125 -4.820312 3.203125 -4.1875 C 3.203125 -3.550781 3.378906 -3.039062 3.734375 -2.65625 C 4.085938 -2.28125 4.5625 -2.09375 5.15625 -2.09375 C 5.863281 -2.09375 6.472656 -2.421875 6.984375 -3.078125 L 8.765625 -1.484375 C 8.359375 -0.941406 7.832031 -0.523438 7.1875 -0.234375 C 6.550781 0.046875 5.828125 0.1875 5.015625 0.1875 Z M 5.015625 0.1875"/></g></g></g></svg>